<svg width="26" height="24" viewBox="0 0 26 24" fill="none" xmlns="http://www.w3.org/2000/svg">
<path d="M16.0324 0.676749C9.03217 -0.761666 2.83351 7.58875 0.55603 11.7841C0.55603 25.5689 16.0324 26.0887 21.6662 17.4582C27.2999 8.82775 24.7827 2.47477 16.0324 0.676749Z" fill="#F39676"/>
<path d="M0.55603 11.7841L0.116603 11.5456C0.0768521 11.6188 0.0560303 11.7008 0.0560303 11.7841H0.55603ZM16.0324 0.676749L15.9318 1.16652L16.0324 0.676749ZM0.995457 12.0227C2.11587 9.95874 4.20232 6.87314 6.8572 4.48984C9.5224 2.09728 12.6636 0.494977 15.9318 1.16652L16.1331 0.186981C12.4009 -0.579895 8.94274 1.27381 6.18918 3.74569C3.4253 6.22684 1.27367 9.41413 0.116603 11.5456L0.995457 12.0227ZM15.9318 1.16652C20.2146 2.04656 22.8339 4.00954 23.7717 6.67147C24.7158 9.35103 24.0263 12.928 21.2475 17.1849L22.0849 17.7315C24.9398 13.358 25.8086 9.44321 24.7149 6.33916C23.615 3.21747 20.6005 1.10496 16.1331 0.186981L15.9318 1.16652ZM21.2475 17.1849C18.5445 21.3256 13.4685 23.2765 9.08191 22.5339C6.89812 22.1642 4.90016 21.1296 3.44683 19.3803C1.9947 17.6324 1.05603 15.1343 1.05603 11.7841H0.0560303C0.0560303 15.3264 1.05191 18.0625 2.67765 20.0193C4.3022 21.9747 6.52546 23.1153 8.91499 23.5199C13.675 24.3257 19.1541 22.2213 22.0849 17.7315L21.2475 17.1849Z" fill="#F39676"/>
</svg>
